<svg xmlns="http://www.w3.org/2000/svg" viewBox="0 0 512 512">
  <rect width="512" height="512" rx="100" fill="#1F2A44"/>
  <circle cx="168" cy="168" r="58" fill="#8A4B2D"/>
  <circle cx="344" cy="168" r="58" fill="#8A4B2D"/>
  <circle cx="168" cy="168" r="30" fill="#C9986F"/>
  <circle cx="344" cy="168" r="30" fill="#C9986F"/>
  <circle cx="256" cy="286" r="148" fill="#8A4B2D"/>
  <ellipse cx="256" cy="342" rx="84" ry="72" fill="#C9986F"/>
  <circle cx="204" cy="254" r="19" fill="#241609"/>
  <circle cx="308" cy="254" r="19" fill="#241609"/>
  <ellipse cx="256" cy="318" rx="28" ry="21" fill="#241609"/>
  <path d="M256 338v24" stroke="#241609" stroke-width="11" stroke-linecap="round"/>
  <path d="M256 362q-22 20-44 8M256 362q22 20 44 8" stroke="#241609" stroke-width="11" fill="none" stroke-linecap="round"/>
  <path d="M430 60l9 22 23 2-17 16 5 23-20-12-20 12 5-23-17-16 23-2z" fill="#C8402A"/>
</svg>
